<svg xmlns="http://www.w3.org/2000/svg" width="1100" height="430" viewBox="0 0 1100 430" role="img">
  <defs>
    <style>
      .title { font: 700 42px Arial, Helvetica, sans-serif; fill: #F4F7F5; letter-spacing: 0; }
      .subtitle { font: 400 21px Arial, Helvetica, sans-serif; fill: #B8C2BF; letter-spacing: 0; }
      .label { font: 700 17px Arial, Helvetica, sans-serif; fill: #F4F7F5; letter-spacing: 0; }
      .small { font: 400 13px Arial, Helvetica, sans-serif; fill: #B8C2BF; letter-spacing: 0; }
      .tiny { font: 400 11px Arial, Helvetica, sans-serif; fill: #B8C2BF; letter-spacing: 0; }
    </style>
  </defs>
  <rect width="1100" height="430" fill="#111417"/>
  <text x="54" y="70" class="title">Why One Starting Geometry Can Fail</text>
  <text x="54" y="103" class="subtitle">different initial sites may relax into different local minima</text>
  <path d="M110 330 C250 130, 330 325, 455 180 C590 24, 670 330, 800 150 C890 55, 985 205, 1030 125" fill="none" stroke="#B8C2BF" stroke-width="5"/>
  <path d="M110 330 C250 130, 330 325, 455 180 C590 24, 670 330, 800 150 C890 55, 985 205, 1030 125" fill="none" stroke="#76B900" stroke-width="2"/>
  <circle cx="455" cy="180" r="13" fill="#F5B342"/>
  <circle cx="800" cy="150" r="15" fill="#76B900"/>
  <circle cx="260" cy="182" r="10" fill="#EF6C73"/>
  <path d="M260 182 C315 215, 386 208, 455 180" fill="none" stroke="#EF6C73" stroke-width="3" stroke-dasharray="7 7"/>
  <path d="M610 86 C672 115, 735 126, 800 150" fill="none" stroke="#76B900" stroke-width="3" stroke-dasharray="7 7"/>
  <text x="225" y="155" class="small">single top-site start</text>
  <text x="392" y="215" class="small">local minimum</text>
  <text x="748" y="184" class="small">batch-search minimum</text>
  <text x="98" y="372" class="small">configuration coordinate</text>
  <text x="40" y="226" class="small" transform="rotate(-90 40 226)">relative energy</text>
</svg>
